<svg viewBox="0 0 190 90" width="190" height="90" xmlns="http://www.w3.org/2000/svg"><path d="M 28 60 C 8 56 4 38 18 32 C 24 28 30 32 30 40" fill="none" stroke="#2A1A0E" stroke-width="7" stroke-linecap="round"></path><path d="M 28 60 C 8 56 4 38 18 32 C 24 28 30 32 30 40" fill="none" stroke="#FF9B45" stroke-width="4" stroke-linecap="round"></path><circle cx="18" cy="32" r="4" fill="#FFE3C0" stroke="#2A1A0E" stroke-width="2"></circle><path d="M 42 62 Q 28 66 22 70 L 30 76 Q 46 74 54 68 Z" fill="#FF9B45" stroke="#2A1A0E" stroke-width="3" stroke-linejoin="round"></path><ellipse cx="90" cy="58" rx="56" ry="14" fill="#FF9B45" stroke="#2A1A0E" stroke-width="3"></ellipse><ellipse cx="90" cy="66" rx="42" ry="6" fill="#FFE3C0"></ellipse><path d="M 68 50 Q 66 56 70 60" stroke="#C8541A" stroke-width="3.5" fill="none" stroke-linecap="round"></path><path d="M 86 48 Q 84 56 88 60" stroke="#C8541A" stroke-width="3.5" fill="none" stroke-linecap="round"></path><path d="M 104 48 Q 102 56 106 60" stroke="#C8541A" stroke-width="3.5" fill="none" stroke-linecap="round"></path><path d="M 130 64 Q 144 72 156 72 L 156 78 Q 138 78 128 70 Z" fill="#E76F23" stroke="#2A1A0E" stroke-width="3" stroke-linejoin="round"></path><circle cx="156" cy="46" r="22" fill="#FF9B45" stroke="#2A1A0E" stroke-width="3"></circle><path d="M 142 30 L 140 16 L 152 24 Z" fill="#FF9B45" stroke="#2A1A0E" stroke-width="3" stroke-linejoin="round"></path><path d="M 168 26 L 174 14 L 174 28 Z" fill="#FF9B45" stroke="#2A1A0E" stroke-width="3" stroke-linejoin="round"></path><ellipse cx="156" cy="54" rx="11" ry="7" fill="#FFE3C0"></ellipse><path d="M 144 44 Q 148 42 152 44" stroke="#2A1A0E" stroke-width="3" fill="none" stroke-linecap="round"></path><path d="M 160 44 Q 164 42 168 44" stroke="#2A1A0E" stroke-width="3" fill="none" stroke-linecap="round"></path><path d="M 154 50 L 158 50 L 156 53 Z" fill="#FFA9B6" stroke="#2A1A0E" stroke-width="1.2" stroke-linejoin="round"></path><path d="M 156 53 Q 152 56 150 54 M 156 53 Q 160 56 162 54" stroke="#2A1A0E" stroke-width="1.4" fill="none" stroke-linecap="round"></path><circle cx="14" cy="76" r="6" fill="#fff" opacity="0.85"></circle><circle cx="26" cy="80" r="4" fill="#fff" opacity="0.7"></circle><circle cx="4" cy="82" r="5" fill="#fff" opacity="0.6"></circle></svg>