<svg viewBox="0 0 180 220" width="180" height="220" xmlns="http://www.w3.org/2000/svg"><rect x="14" y="40" width="28" height="170" rx="6" fill="#6FB8FF" stroke="#2A1A0E" stroke-width="3"></rect><rect x="14" y="40" width="28" height="14" rx="4" fill="#3F8DDB" stroke="#2A1A0E" stroke-width="3"></rect><rect x="18" y="60" width="8" height="140" fill="#3F8DDB" opacity="0.5"></rect><rect x="138" y="40" width="28" height="170" rx="6" fill="#FF6FB8" stroke="#2A1A0E" stroke-width="3"></rect><rect x="138" y="40" width="28" height="14" rx="4" fill="#DB3F8D" stroke="#2A1A0E" stroke-width="3"></rect><rect x="154" y="60" width="8" height="140" fill="#DB3F8D" opacity="0.5"></rect><path d="M 14 46 Q 90 14 166 46" fill="none" stroke="#2A1A0E" stroke-width="3" stroke-linecap="round"></path><circle cx="40" cy="34" r="5" fill="#FFD23F" stroke="#2A1A0E" stroke-width="2"></circle><circle cx="62" cy="22" r="5" fill="#FF6FB8" stroke="#2A1A0E" stroke-width="2"></circle><circle cx="90" cy="16" r="5" fill="#6FB8FF" stroke="#2A1A0E" stroke-width="2"></circle><circle cx="118" cy="22" r="5" fill="#7BD96E" stroke="#2A1A0E" stroke-width="2"></circle><circle cx="140" cy="34" r="5" fill="#B79CFF" stroke="#2A1A0E" stroke-width="2"></circle><rect x="30" y="74" width="120" height="68" rx="10" fill="#FFFCEC" stroke="#2A1A0E" stroke-width="3"></rect><rect x="30" y="74" width="120" height="14" rx="10" fill="#FFE5A6" stroke="#2A1A0E" stroke-width="3"></rect><text x="90" y="120" text-anchor="middle" font-family="Fredoka, sans-serif" font-weight="700" font-size="28" fill="#2A1A0E">7 + ?</text><rect x="56" y="156" width="68" height="38" rx="19" fill="#7BD96E" stroke="#2A1A0E" stroke-width="3"></rect><text x="90" y="183" text-anchor="middle" font-family="Fredoka, sans-serif" font-weight="700" font-size="22" fill="#fff">12</text></svg>