<svg viewBox="0 0 128 128" width="128" height="128" xmlns="http://www.w3.org/2000/svg"><circle cx="64" cy="64" r="58" fill="#2E6FBF" stroke="#2A1A0E" stroke-width="4"></circle><circle cx="64" cy="64" r="58" fill="none" stroke="#fff" stroke-width="2" opacity="0.6"></circle><circle cx="64" cy="64" r="46" fill="#6FB8FF"></circle><g transform="translate(64,64)"><g stroke="#2A1A0E" stroke-width="3" stroke-linejoin="round" fill="#fff"><path d="M -26 26 L 26 26 L 22 18 L -22 18 Z"></path><path d="M -20 18 L -20 0 Q -18 -10 -10 -16 Q -6 -22 4 -22 Q 18 -22 22 -10 Q 22 0 18 6 L 22 18 Z"></path><path d="M -6 -22 Q -10 -16 -14 -10 L -10 -8 Q -8 -14 -4 -18 Z" fill="#2A1A0E"></path><circle cx="6" cy="-10" r="2" fill="#2A1A0E"></circle><path d="M 12 -22 L 16 -28 L 18 -20 Z"></path></g></g><g fill="#fff"><path d="M 14 24 L 16 30 L 22 32 L 16 34 L 14 40 L 12 34 L 6 32 L 12 30 Z" opacity="0.9"></path><path d="M 108 100 L 110 106 L 116 108 L 110 110 L 108 116 L 106 110 L 100 108 L 106 106 Z" opacity="0.8"></path><circle cx="104" cy="28" r="3" opacity="0.8"></circle><circle cx="22" cy="100" r="2.5" opacity="0.7"></circle></g></svg>