<svg viewBox="0 0 128 128" width="128" height="128" xmlns="http://www.w3.org/2000/svg"><circle cx="64" cy="64" r="58" fill="#B85436" stroke="#2A1A0E" stroke-width="4"></circle><circle cx="64" cy="64" r="58" fill="none" stroke="#fff" stroke-width="2" opacity="0.6"></circle><circle cx="64" cy="64" r="46" fill="#FF8C5C"></circle><g transform="translate(64,64)"><g stroke="#2A1A0E" stroke-width="3" stroke-linejoin="round" fill="#fff"><path d="M -28 24 L 28 24 L 24 16 L -24 16 Z"></path><path d="M -20 16 L 20 16 L 18 -14 L -18 -14 Z"></path><path d="M -24 -14 L 24 -14 L 24 -22 L 16 -22 L 16 -16 L 8 -16 L 8 -22 L -8 -22 L -8 -16 L -16 -16 L -16 -22 L -24 -22 Z"></path></g></g><g fill="#fff"><path d="M 14 24 L 16 30 L 22 32 L 16 34 L 14 40 L 12 34 L 6 32 L 12 30 Z" opacity="0.9"></path><path d="M 108 100 L 110 106 L 116 108 L 110 110 L 108 116 L 106 110 L 100 108 L 106 106 Z" opacity="0.8"></path><circle cx="104" cy="28" r="3" opacity="0.8"></circle><circle cx="22" cy="100" r="2.5" opacity="0.7"></circle></g></svg>